<?xml version="1.0" encoding="utf-8"?>
<!-- Generator: Adobe Illustrator 21.0.0, SVG Export Plug-In . SVG Version: 6.00 Build 0)  -->
<svg version="1.1" id="Body" xmlns="http://www.w3.org/2000/svg" xmlns:xlink="http://www.w3.org/1999/xlink" x="0px" y="0px"
	 viewBox="0 0 78.8 17.1" style="enable-background:new 0 0 78.8 17.1;" xml:space="preserve">
<style type="text/css">
	.st0{fill:#F2F6FC;}
</style>
<g>
	<g>
		<path class="st0" d="M9.8,8.3c2.6,0.2,3.5,1.8,3.5,4.4c0,3.4-1.8,4.3-5.8,4.3c-3.4,0-5.3,0-7.5-0.2V0.2C2,0.1,3.7,0,6.7,0
			c4.5,0,6,0.9,6,4.3c0,2.4-0.8,3.6-3,3.8V8.3z M6.6,6.8c1.5,0,1.9-0.4,1.9-1.8c0-1.4-0.4-1.8-2-1.8H4.4v3.6H6.6z M6.7,13.8
			c1.7,0,2.1-0.4,2.1-2c0-1.8-0.4-2.2-2.2-2.2H4.4v4.2L6.7,13.8z"/>
		<path class="st0" d="M29.5,10.1c0,5.2-1.8,7.1-6.8,7.1c-5.3,0-7.2-1.9-7.2-7.1V0.2H20v9.8c0,2.8,0.6,3.6,2.5,3.6
			c1.9,0,2.5-0.8,2.5-3.6V0.2h4.5V10.1z"/>
		<path class="st0" d="M42.2,15.6c-0.2,0.7-0.8,1.2-1.6,1.2h-4c-0.8,0-1.4-0.5-1.6-1.2L30.9,0.2h4.6L38,11.5
			c0.1,0.6,0.2,1.3,0.3,1.9H39c0.1-0.6,0.2-1.3,0.3-1.9l2.5-11.3h4.7L42.2,15.6z"/>
		<path class="st0" d="M61.9,10.1c0,5.2-1.8,7.1-6.8,7.1c-5.3,0-7.2-1.9-7.2-7.1V0.2h4.5v9.8c0,2.8,0.6,3.6,2.5,3.6
			c1.9,0,2.5-0.8,2.5-3.6V0.2h4.5V10.1z"/>
		<path class="st0" d="M64.6,0.2c2-0.1,4.1-0.2,6.8-0.2c5.5,0,7.4,1.9,7.4,8.5S76.9,17,71.4,17c-2.6,0-4.8-0.1-6.8-0.2V0.2z
			 M69.1,13.6c0.7,0,1.5,0,2.3,0c2.1,0,2.7-1.1,2.7-5.1c0-4.1-0.6-5.2-2.7-5.2l-2.3,0V13.6z"/>
	</g>
</g>
</svg>
